<?xml version="1.0" encoding="utf-8"?>
<COLLADA xmlns="http://www.collada.org/2005/11/COLLADASchema" version="1.4.1" xmlns:xsi="http://www.w3.org/2001/XMLSchema-instance">
  <asset>
    <contributor>
      <author>Blender User</author>
      <authoring_tool>Blender 4.1.1 commit date:2024-04-15, commit time:15:11, hash:e1743a0317bc</authoring_tool>
    </contributor>
    <created>2024-06-12T08:00:22</created>
    <modified>2024-06-12T08:00:22</modified>
    <unit name="meter" meter="1"/>
    <up_axis>Z_UP</up_axis>
  </asset>
  <library_effects>
    <effect id="White_Mat__wood_-effect">
      <profile_COMMON>
        <technique sid="common">
          <lambert>
            <emission>
              <color sid="emission">0 0 0 1</color>
            </emission>
            <diffuse>
              <color sid="diffuse">0.9686 0.9686 0.9686 1</color>
            </diffuse>
            <index_of_refraction>
              <float sid="ior">1.5</float>
            </index_of_refraction>
          </lambert>
        </technique>
      </profile_COMMON>
    </effect>
  </library_effects>
  <library_images/>
  <library_materials>
    <material id="White_Mat__wood_-material" name="White_Mat__wood_">
      <instance_effect url="#White_Mat__wood_-effect"/>
    </material>
  </library_materials>
  <library_geometries>
    <geometry id="_4314_Straight_Leg_Coffee_Table-White_V1_l1-mesh" name="14314_Straight_Leg_Coffee_Table-White_V1_l1">
      <mesh>
        <source id="_4314_Straight_Leg_Coffee_Table-White_V1_l1-mesh-positions">
          <float_array id="_4314_Straight_Leg_Coffee_Table-White_V1_l1-mesh-positions-array" count="216">60.59077 24.27478 5.346343 -60.53103 24.27478 5.346343 -60.53103 26.14588 5.346343 60.59077 26.14588 5.346343 60.59077 24.27478 11.45394 60.59077 26.14588 11.45394 -60.53103 26.14588 11.45394 -60.53103 24.27478 11.45394 60.59077 -26.11262 5.346343 -60.53103 -26.11262 5.346343 -60.53103 -24.24152 5.346343 60.59077 -24.24152 5.346343 60.59077 -26.11262 11.45394 60.59077 -24.24152 11.45394 -60.53103 -24.24152 11.45394 -60.53103 -26.11262 11.45394 -58.96092 -26.11262 5.346343 -60.66413 -26.11262 5.346343 -60.66413 26.15338 5.346343 -58.96092 26.15338 5.346343 -58.96092 -26.11262 11.45394 -58.96092 26.15338 11.45394 -60.66413 26.15338 11.45394 -60.66413 -26.11262 11.45394 60.63417 -26.11262 5.346343 58.93097 -26.11262 5.346343 58.93097 26.15338 5.346343 60.63417 26.15338 5.346343 60.63417 -26.11262 11.45394 60.63417 26.15338 11.45394 58.93097 26.15338 11.45394 58.93097 -26.11262 11.45394 61.16347 -26.64882 -34.50985 55.49707 -26.64882 -34.50985 55.49707 -22.65152 -34.50985 61.16347 -22.65152 -34.50985 61.13467 -26.61602 11.45394 61.13467 -21.49572 11.45394 53.24197 -21.49572 11.45394 53.24197 -26.61602 11.45394 61.16347 26.66668 -34.50985 55.49707 26.66668 -34.50985 55.49707 22.66938 -34.50985 61.16347 22.66938 -34.50985 61.13467 26.63388 11.45394 61.13467 21.51348 11.45394 53.24197 21.51348 11.45394 53.24197 26.63388 11.45394 -61.18413 26.66668 -34.50975 -55.51782 26.66668 -34.50975 -55.51782 22.66938 -34.50975 -61.18413 22.66938 -34.50975 -61.15542 26.63388 11.45394 -61.15542 21.51348 11.45394 -53.26272 21.51348 11.45394 -53.26272 26.63388 11.45394 -61.18413 -26.64882 -34.50985 -55.51782 -26.64882 -34.50985 -55.51782 -22.65152 -34.50985 -61.18413 -22.65152 -34.50985 -61.15542 -26.61602 11.45394 -61.15542 -21.49572 11.45394 -53.26272 -21.49572 11.45394 -53.26272 -26.61602 11.45394 64.18228 -29.52352 11.41554 -64.15893 -29.52352 11.41554 -64.15893 29.30408 11.41554 64.18228 29.30408 11.41554 64.18228 -29.52352 13.60684 64.18228 29.30408 13.60684 -64.15893 29.30408 13.60684 -64.15893 -29.52352 13.60684</float_array>
          <technique_common>
            <accessor source="#_4314_Straight_Leg_Coffee_Table-White_V1_l1-mesh-positions-array" count="72" stride="3">
              <param name="X" type="float"/>
              <param name="Y" type="float"/>
              <param name="Z" type="float"/>
            </accessor>
          </technique_common>
        </source>
        <source id="_4314_Straight_Leg_Coffee_Table-White_V1_l1-mesh-normals">
          <float_array id="_4314_Straight_Leg_Coffee_Table-White_V1_l1-mesh-normals-array" count="201">0 0 -1 0 0 1 1 0 0 0 1 0 -1 0 0 0 -1 0 0.9999999 0 6.26519e-4 0.9999998 0 6.26518e-4 0.9999999 0 6.26519e-4 0 0.999684 -0.0251379 0 0.999684 -0.02513796 0 0.999684 -0.02513784 -0.9987986 0 -0.0490036 -0.9987986 0 -0.04900354 -0.9987986 0 -0.04900354 0 -0.9999998 7.1359e-4 0 -0.9999998 7.13681e-4 0 -0.9999998 7.13689e-4 0.9999998 0 6.26518e-4 0.9999999 0 6.26518e-4 0.9999998 0 6.26518e-4 0 -0.999684 -0.0251401 0 -0.999684 -0.0251401 0 -0.999684 -0.0251401 -0.9987986 0 -0.0490036 -0.9987986 0 -0.04900354 -0.9987987 0 -0.0490036 0 0.9999998 7.13507e-4 0 0.9999998 7.13574e-4 0 0.9999998 7.135e-4 -0.9999999 0 6.24445e-4 -0.9999999 0 6.24445e-4 0 -0.999684 -0.0251401 0 -0.999684 -0.02514016 0 -0.999684 -0.0251401 0.9987986 0 -0.04900366 0.9987986 0 -0.04900372 0.9987986 0 -0.04900372 0 0.9999998 7.13568e-4 0 0.9999998 7.13527e-4 0 0.9999998 7.13523e-4 -0.9999998 0 6.24443e-4 -0.9999999 0 6.24444e-4 -0.9999999 0 6.24444e-4 0 0.999684 -0.02513796 0 0.999684 -0.0251379 0 0.999684 -0.0251379 0.9987986 0 -0.04900354 0.9987986 0 -0.0490036 0.9987986 0 -0.04900354 0 -0.9999998 7.13673e-4 0 -0.9999998 7.135e-4 0.9999998 0 6.26518e-4 0 0.999684 -0.02513796 -0.9987987 0 -0.0490036 0 -0.9999998 7.13578e-4 0.9999998 0 6.26518e-4 0 -0.9996839 -0.0251401 -0.9987987 0 -0.04900354 0 0.9999998 7.13582e-4 0 -0.999684 -0.02514016 0.9987987 0 -0.04900366 0 0.9999998 7.13573e-4 -0.9999998 0 6.24443e-4 0 0.999684 -0.02513796 0.9987987 0 -0.0490036 0 -0.9999998 7.13477e-4</float_array>
          <technique_common>
            <accessor source="#_4314_Straight_Leg_Coffee_Table-White_V1_l1-mesh-normals-array" count="67" stride="3">
              <param name="X" type="float"/>
              <param name="Y" type="float"/>
              <param name="Z" type="float"/>
            </accessor>
          </technique_common>
        </source>
        <source id="_4314_Straight_Leg_Coffee_Table-White_V1_l1-mesh-map-0">
          <float_array id="_4314_Straight_Leg_Coffee_Table-White_V1_l1-mesh-map-0-array" count="648">-251.811 -571.29 -251.1111 -525.9902 -251.811 -525.9902 -525.9901 613.7266 -571.29 613.0268 -525.9901 613.0268 -474.0571 613.7266 -476.3414 613.0268 -474.0571 613.0268 -474.0571 661.8629 -476.3414 616.563 -474.0571 616.563 -474.0571 504.4163 -476.3414 503.7165 -474.0571 503.7165 -248.2747 -474.0573 -202.9748 -476.3414 -202.9748 -474.0573 -270.6559 -571.29 -269.9561 -525.9902 -270.6559 -525.9902 -525.9901 594.8815 -571.29 594.1818 -525.9901 594.1818 -474.0571 594.8815 -476.3414 594.1818 -474.0571 594.1818 -474.0571 661.8629 -476.3414 616.563 -474.0571 616.563 -474.0571 523.2614 -476.3414 522.5616 -474.0571 522.5616 -248.2747 -474.0573 -202.9748 -476.3414 -202.9748 -474.0573 -270.6559 -571.3398 -251.1083 -570.7029 -270.6559 -570.7029 -570.7028 613.7294 -571.3398 594.1818 -570.7028 594.1818 -361.124 -474.0573 -341.5764 -476.3414 -341.5764 -474.0573 -474.0571 661.9127 -476.3414 661.2757 -474.0571 661.2757 -177.7135 -166.7543 -158.1658 -169.0385 -158.1658 -166.7543 -474.0571 456.1674 -476.3414 455.5304 -474.0571 455.5304 -270.6559 -526.611 -251.1083 -525.974 -270.6559 -525.974 -525.9738 613.7294 -526.6108 594.1818 -525.9739 594.1818 -361.124 -474.0573 -341.5764 -476.3414 -341.5764 -474.0573 -474.0571 617.1837 -476.3414 616.5468 -474.0571 616.5468 -175.5782 -121.5674 -156.0305 -123.8517 -156.0305 -121.5675 -474.0571 500.8964 -476.3414 500.2594 -474.0571 500.2594 -496.8239 106.114 -498.3189 103.9948 -496.8239 103.9948 -525.7867 595.9085 -528.7385 593.9935 -525.7867 593.9935 -424.8096 37.3696 -426.2923 54.5602 -426.3046 37.3696 -401.8177 37.3696 -403.9262 54.5602 -403.937 37.3696 -212.0116 318.849 -213.4943 301.6584 -211.5793 301.6584 -521.3107 37.3696 -519.2023 54.5602 -522.1542 54.5602 -515.269 106.114 -516.7641 103.9948 -515.269 103.9948 -528.7385 611.9941 -525.7867 613.9091 -528.7385 613.9091 -406.3767 54.5602 -407.8594 37.3696 -406.3644 37.3696 -519.2023 54.5602 -521.3107 37.3696 -519.1915 37.3696 -193.5788 301.6584 -195.0615 318.849 -195.4938 301.6584 -403.9262 54.5602 -401.8177 37.3696 -400.9743 54.5602 -516.764 147.6339 -515.269 149.7531 -516.764 149.7531 -571.5235 611.9941 -568.5717 613.9091 -571.5235 613.9091 -195.0615 318.849 -193.5787 301.6584 -193.5665 318.849 -562.8307 37.3696 -564.9391 54.5603 -564.9499 37.3696 -407.8594 37.3696 -406.3767 54.5602 -408.2917 54.5602 -360.2978 37.3696 -358.1893 54.5602 -361.1412 54.5602 -498.3188 147.6339 -496.8239 149.7531 -498.3188 149.7531 -568.5717 595.9085 -571.5236 593.9935 -568.5717 593.9935 -213.4943 301.6584 -212.0116 318.849 -213.5066 318.849 -358.1893 54.5602 -360.2978 37.3696 -358.1786 37.3696 -426.2923 54.5602 -424.8096 37.3696 -424.3773 54.5602 -564.9391 54.5602 -562.8307 37.3696 -561.9872 54.5602 -779.469 72.3497 -757.4673 120.3497 -779.469 120.3497 -869.8397 120.3497 -847.838 72.3497 -847.838 120.3497 -386.3776 -219.5915 -364.3759 -220.4111 -364.3759 -219.5915 -434.6896 -219.5915 -386.6896 -220.4111 -386.6896 -219.5915 -178.9892 -169.0242 -156.9875 -169.8437 -156.9875 -169.0242 -273.6932 -219.5915 -225.6932 -220.4111 -225.6932 -219.5915 -251.811 -571.29 -251.1111 -571.29 -251.1111 -525.9902 -525.9901 613.7266 -571.29 613.7266 -571.29 613.0268 -474.0571 613.7266 -476.3414 613.7266 -476.3414 613.0268 -474.0571 661.8629 -476.3413 661.8629 -476.3414 616.563 -474.0571 504.4163 -476.3414 504.4163 -476.3414 503.7165 -248.2747 -474.0573 -248.2747 -476.3414 -202.9748 -476.3414 -270.6559 -571.29 -269.9561 -571.29 -269.9561 -525.9902 -525.9901 594.8815 -571.29 594.8815 -571.29 594.1818 -474.0571 594.8815 -476.3414 594.8815 -476.3414 594.1818 -474.0571 661.8629 -476.3413 661.8629 -476.3414 616.563 -474.0571 523.2614 -476.3414 523.2614 -476.3414 522.5616 -248.2747 -474.0573 -248.2747 -476.3414 -202.9748 -476.3414 -270.6559 -571.3398 -251.1083 -571.3398 -251.1083 -570.7029 -570.7028 613.7294 -571.3398 613.7294 -571.3398 594.1818 -361.124 -474.0573 -361.124 -476.3414 -341.5764 -476.3414 -474.0571 661.9127 -476.3414 661.9127 -476.3414 661.2757 -177.7135 -166.7543 -177.7135 -169.0385 -158.1658 -169.0385 -474.0571 456.1674 -476.3414 456.1674 -476.3414 455.5304 -270.6559 -526.611 -251.1083 -526.611 -251.1083 -525.974 -525.9738 613.7294 -526.6108 613.7294 -526.6108 594.1818 -361.124 -474.0573 -361.124 -476.3414 -341.5764 -476.3414 -474.0571 617.1837 -476.3414 617.1837 -476.3414 616.5468 -175.5782 -121.5674 -175.5782 -123.8517 -156.0305 -123.8517 -474.0571 500.8964 -476.3414 500.8964 -476.3414 500.2594 -496.8239 106.114 -498.3189 106.114 -498.3189 103.9948 -525.7867 595.9085 -528.7385 595.9085 -528.7385 593.9935 -424.8096 37.3696 -424.3773 54.5602 -426.2923 54.5602 -401.8177 37.3696 -400.9743 54.5602 -403.9262 54.5602 -212.0116 318.849 -213.5066 318.849 -213.4943 301.6584 -521.3107 37.3696 -519.1915 37.3696 -519.2023 54.5602 -515.269 106.114 -516.7641 106.114 -516.7641 103.9948 -528.7385 611.9941 -525.7867 611.9941 -525.7867 613.9091 -406.3767 54.5602 -408.2917 54.5602 -407.8594 37.3696 -519.2023 54.5602 -522.1542 54.5602 -521.3107 37.3696 -193.5788 301.6584 -193.5665 318.849 -195.0615 318.849 -403.9262 54.5602 -403.937 37.3696 -401.8177 37.3696 -516.764 147.6339 -515.269 147.6339 -515.269 149.7531 -571.5235 611.9941 -568.5717 611.9941 -568.5717 613.9091 -195.0615 318.849 -195.4937 301.6584 -193.5787 301.6584 -562.8307 37.3696 -561.9872 54.5603 -564.9391 54.5603 -407.8594 37.3696 -406.3644 37.3696 -406.3767 54.5602 -360.2978 37.3696 -358.1786 37.3696 -358.1893 54.5602 -498.3188 147.6339 -496.8239 147.6339 -496.8239 149.7531 -568.5717 595.9085 -571.5236 595.9085 -571.5236 593.9935 -213.4943 301.6584 -211.5793 301.6584 -212.0116 318.849 -358.1893 54.5602 -361.1412 54.5602 -360.2978 37.3696 -426.2923 54.5602 -426.3046 37.3696 -424.8096 37.3696 -564.9391 54.5602 -564.9499 37.3696 -562.8307 37.3696 -779.469 72.3497 -757.4673 72.3497 -757.4673 120.3497 -869.8397 120.3497 -869.8397 72.3497 -847.838 72.3497 -386.3776 -219.5915 -386.3776 -220.4111 -364.3759 -220.4111 -434.6896 -219.5915 -434.6896 -220.4111 -386.6896 -220.4111 -178.9892 -169.0242 -178.9892 -169.8437 -156.9875 -169.8437 -273.6932 -219.5915 -273.6932 -220.4111 -225.6932 -220.4111</float_array>
          <technique_common>
            <accessor source="#_4314_Straight_Leg_Coffee_Table-White_V1_l1-mesh-map-0-array" count="324" stride="2">
              <param name="S" type="float"/>
              <param name="T" type="float"/>
            </accessor>
          </technique_common>
        </source>
        <vertices id="_4314_Straight_Leg_Coffee_Table-White_V1_l1-mesh-vertices">
          <input semantic="POSITION" source="#_4314_Straight_Leg_Coffee_Table-White_V1_l1-mesh-positions"/>
        </vertices>
        <triangles material="White_Mat__wood_-material" count="108">
          <input semantic="VERTEX" source="#_4314_Straight_Leg_Coffee_Table-White_V1_l1-mesh-vertices" offset="0"/>
          <input semantic="NORMAL" source="#_4314_Straight_Leg_Coffee_Table-White_V1_l1-mesh-normals" offset="1"/>
          <input semantic="TEXCOORD" source="#_4314_Straight_Leg_Coffee_Table-White_V1_l1-mesh-map-0" offset="2" set="0"/>
          <p>1 0 0 3 0 1 0 0 2 5 1 3 7 1 4 4 1 5 3 2 6 4 2 7 0 2 8 2 3 9 5 3 10 3 3 11 1 4 12 6 4 13 2 4 14 0 5 15 7 5 16 1 5 17 9 0 18 11 0 19 8 0 20 13 1 21 15 1 22 12 1 23 11 2 24 12 2 25 8 2 26 10 3 27 13 3 28 11 3 29 9 4 30 14 4 31 10 4 32 8 5 33 15 5 34 9 5 35 17 0 36 19 0 37 16 0 38 21 1 39 23 1 40 20 1 41 19 2 42 20 2 43 16 2 44 18 3 45 21 3 46 19 3 47 17 4 48 22 4 49 18 4 50 16 5 51 23 5 52 17 5 53 25 0 54 27 0 55 24 0 56 29 1 57 31 1 58 28 1 59 27 2 60 28 2 61 24 2 62 26 3 63 29 3 64 27 3 65 25 4 66 30 4 67 26 4 68 24 5 69 31 5 70 25 5 71 33 0 72 35 0 73 32 0 74 37 1 75 39 1 76 36 1 77 35 6 78 36 7 79 32 8 80 34 9 81 37 10 82 35 11 83 34 12 84 39 13 85 38 14 86 33 15 87 36 16 88 39 17 89 42 0 90 40 0 91 43 0 92 46 1 93 44 1 94 47 1 95 44 18 96 43 19 97 40 20 98 45 21 99 42 22 100 43 23 101 47 24 102 42 25 103 46 26 104 44 27 105 41 28 106 47 29 107 49 0 108 51 0 109 48 0 110 53 1 111 55 1 112 52 1 113 51 30 114 52 30 115 48 31 116 50 32 117 53 33 118 51 34 119 50 35 120 55 36 121 54 37 122 49 38 123 52 39 124 55 40 125 58 0 126 56 0 127 59 0 128 62 1 129 60 1 130 63 1 131 60 41 132 59 42 133 56 43 134 61 44 135 58 45 136 59 46 137 63 47 138 58 48 139 62 49 140 60 50 141 57 51 142 63 17 143 65 0 144 67 0 145 64 0 146 69 1 147 71 1 148 68 1 149 67 2 150 68 2 151 64 2 152 66 3 153 69 3 154 67 3 155 65 4 156 70 4 157 66 4 158 64 5 159 71 5 160 65 5 161 1 0 162 2 0 163 3 0 164 5 1 165 6 1 166 7 1 167 3 2 168 5 2 169 4 2 170 2 3 171 6 3 172 5 3 173 1 4 174 7 4 175 6 4 176 0 5 177 4 5 178 7 5 179 9 0 180 10 0 181 11 0 182 13 1 183 14 1 184 15 1 185 11 2 186 13 2 187 12 2 188 10 3 189 14 3 190 13 3 191 9 4 192 15 4 193 14 4 194 8 5 195 12 5 196 15 5 197 17 0 198 18 0 199 19 0 200 21 1 201 22 1 202 23 1 203 19 2 204 21 2 205 20 2 206 18 3 207 22 3 208 21 3 209 17 4 210 23 4 211 22 4 212 16 5 213 20 5 214 23 5 215 25 0 216 26 0 217 27 0 218 29 1 219 30 1 220 31 1 221 27 2 222 29 2 223 28 2 224 26 3 225 30 3 226 29 3 227 25 4 228 31 4 229 30 4 230 24 5 231 28 5 232 31 5 233 33 0 234 34 0 235 35 0 236 37 1 237 38 1 238 39 1 239 35 6 240 37 52 241 36 7 242 34 9 243 38 53 244 37 10 245 34 12 246 33 54 247 39 13 248 33 15 249 32 55 250 36 16 251 42 0 252 41 0 253 40 0 254 46 1 255 45 1 256 44 1 257 44 18 258 45 56 259 43 19 260 45 21 261 46 57 262 42 22 263 47 24 264 41 58 265 42 25 266 44 27 267 40 59 268 41 28 269 49 0 270 50 0 271 51 0 272 53 1 273 54 1 274 55 1 275 51 30 276 53 30 277 52 30 278 50 32 279 54 60 280 53 33 281 50 35 282 49 61 283 55 36 284 49 38 285 48 62 286 52 39 287 58 0 288 57 0 289 56 0 290 62 1 291 61 1 292 60 1 293 60 41 294 61 63 295 59 42 296 61 44 297 62 64 298 58 45 299 63 47 300 57 65 301 58 48 302 60 50 303 56 66 304 57 51 305 65 0 306 66 0 307 67 0 308 69 1 309 70 1 310 71 1 311 67 2 312 69 2 313 68 2 314 66 3 315 70 3 316 69 3 317 65 4 318 71 4 319 70 4 320 64 5 321 68 5 322 71 5 323</p>
        </triangles>
      </mesh>
    </geometry>
  </library_geometries>
  <library_visual_scenes>
    <visual_scene id="Scene" name="Scene">
      <node id="_4314_Straight_Leg_Coffee_Table-White_V1_l1" name="14314_Straight_Leg_Coffee_Table-White_V1_l1" type="NODE">
        <matrix sid="transform">-8.74228e-10 -0.02 0 0 0.02 -8.74228e-10 0 0 0 0 0.015 0.5 0 0 0 1</matrix>
        <instance_geometry url="#_4314_Straight_Leg_Coffee_Table-White_V1_l1-mesh" name="14314_Straight_Leg_Coffee_Table-White_V1_l1">
          <bind_material>
            <technique_common>
              <instance_material symbol="White_Mat__wood_-material" target="#White_Mat__wood_-material">
                <bind_vertex_input semantic="UVMap" input_semantic="TEXCOORD" input_set="0"/>
              </instance_material>
            </technique_common>
          </bind_material>
        </instance_geometry>
      </node>
    </visual_scene>
  </library_visual_scenes>
  <scene>
    <instance_visual_scene url="#Scene"/>
  </scene>
</COLLADA>